<svg width="100" height="60" viewBox="0 0 100 60" fill="none" xmlns="http://www.w3.org/2000/svg">
<path fill-rule="evenodd" clip-rule="evenodd" d="M20.4009 20.5895H29.3273C29.4316 20.6097 29.5309 20.6198 29.6249 20.6198C29.7187 20.6198 29.818 20.6198 29.9223 20.6198C31.8433 20.7003 33.6025 21.2036 35.1998 22.1296C36.7972 23.0555 37.5854 24.6056 37.5645 26.7796C37.5435 28.2493 37.0843 29.3766 36.1864 30.1615C35.2886 30.9467 34.161 31.5105 32.8037 31.8525L37.7524 40.3073H31.3316L26.3518 30.2826C26.4561 30.3024 26.5607 30.3127 26.665 30.3127C26.7695 30.3127 26.8739 30.3127 26.9782 30.3127C27.1453 30.3127 27.3072 30.3176 27.4638 30.3279C27.6204 30.3379 27.7822 30.3328 27.9492 30.3127C28.4086 30.3127 28.8575 30.2723 29.2959 30.192C29.7345 30.1113 30.1311 29.9403 30.486 29.6786C30.9455 29.3565 31.2796 28.9438 31.4882 28.4405C31.6973 27.9372 31.8014 27.4138 31.8014 26.8702C31.8014 26.7495 31.8014 26.6237 31.8014 26.4927C31.8014 26.362 31.7911 26.2363 31.7702 26.1154C31.6031 24.7264 31.0498 23.8758 30.1102 23.5639C29.1707 23.2518 28.1475 23.0858 27.041 23.0657C26.9156 23.0656 26.7904 23.0657 26.665 23.0657C26.5398 23.0656 26.4144 23.0657 26.2893 23.0657C26.2475 23.0656 26.2005 23.0657 26.1482 23.0657C26.096 23.0656 26.0386 23.0657 25.976 23.0657V40.3073H20.4009V20.5895Z" fill="white"/>
<path fill-rule="evenodd" clip-rule="evenodd" d="M57.8115 35.5881C56.851 37.3796 55.5879 38.7033 54.0216 39.5589C52.4556 40.4144 50.6184 40.842 48.5094 40.842C45.7741 40.842 43.3572 40.0421 41.2589 38.4417C39.1604 36.8412 37.965 34.6819 37.6726 31.9644C37.3384 28.9449 38.1163 26.3128 40.0059 24.0681C41.8956 21.8237 44.4169 20.5805 47.5698 20.3391C49.7413 20.1579 51.5943 20.4196 53.129 21.1241C54.6637 21.8287 56.0473 23.0266 57.279 24.7175L54.6483 26.5292C53.9592 25.3013 53.1029 24.2947 52.08 23.5095C51.0568 22.7246 49.7413 22.5032 48.1336 22.8453C46.7972 23.107 45.8106 23.7712 45.1739 24.8382C44.537 25.9052 44.1142 27.0424 43.9054 28.2504C43.8428 28.653 43.8008 29.0555 43.78 29.4584C43.7591 29.8609 43.7488 30.2433 43.7488 30.6058C43.7488 30.8876 43.7644 31.1743 43.7958 31.4664C43.827 31.7582 43.8636 32.0452 43.9054 32.3269C44.156 33.8366 44.7562 35.2207 45.7063 36.4787C46.6564 37.7369 48.0187 38.346 49.7935 38.3058C51.1717 38.2654 52.2992 37.8226 53.176 36.9767C54.0532 36.1315 54.7838 35.1651 55.3687 34.078L57.8115 35.5881Z" fill="white"/>
<path fill-rule="evenodd" clip-rule="evenodd" d="M65.5593 37.3695C65.9977 37.7521 66.4887 38.0389 67.0313 38.2304C67.5744 38.4214 68.1174 38.4767 68.6599 38.3964C68.8063 38.3964 68.9472 38.3761 69.0829 38.3359C69.2185 38.2955 69.3594 38.2453 69.5055 38.1851C70.4451 37.8226 71.15 37.2338 71.6197 36.4182C72.0897 35.603 72.4184 34.7425 72.6064 33.8366C72.6273 33.7563 72.643 33.6706 72.6534 33.58C72.6639 33.4894 72.6793 33.4038 72.7004 33.3233C72.7841 32.7999 72.8464 32.2566 72.8884 31.6925C72.9302 31.1291 72.9404 30.5654 72.9196 30.0018C72.8989 29.1362 72.7995 28.2806 72.6222 27.4352C72.4447 26.5896 72.1678 25.7945 71.7922 25.0496C71.3745 24.2445 70.8523 23.6557 70.2259 23.2832C69.5996 22.9108 68.9523 22.7346 68.2844 22.7547C67.4073 22.7748 66.5827 23.0768 65.81 23.6606C65.0373 24.2445 64.4838 25.0496 64.1498 26.0763C63.9203 26.7204 63.7426 27.5155 63.6174 28.4618C63.4922 29.408 63.4503 30.3741 63.4922 31.3606C63.5341 32.5683 63.7169 33.7259 64.0404 34.8331C64.3639 35.9404 64.8701 36.7959 65.5593 37.3998L65.5593 37.3695ZM68.1904 20.2786C71.8026 20.2989 74.5171 21.3807 76.3338 23.5248C78.1501 25.6687 79.0585 28.0188 79.0585 30.5754C79.0585 33.1521 78.1501 35.5075 76.3338 37.6414C74.5171 39.7751 71.8026 40.8421 68.1904 40.8421C64.5778 40.8421 61.8689 39.7751 60.0625 37.6414C58.2565 35.5075 57.3536 33.1521 57.3536 30.5754C57.3536 28.0188 58.2565 25.6687 60.0625 23.5248C61.8689 21.3807 64.5778 20.3089 68.1904 20.3089L68.1904 20.2786Z" fill="white"/>
<path fill-rule="evenodd" clip-rule="evenodd" d="M79.8611 20.6712H85.2171L89.8209 31.3L94.3939 20.6712H100V40.3893H94.2999V27.4352L88.7877 40.3893H88.2237L82.8366 28.0088V40.3893H79.8611V20.6712Z" fill="white"/>
<path fill-rule="evenodd" clip-rule="evenodd" d="M36.4958 57.0278H99.9999V60H36.4958V57.0278Z" fill="white"/>
<path fill-rule="evenodd" clip-rule="evenodd" d="M36.4958 50.3408H99.9999V54.7987H36.4958V50.3408Z" fill="white"/>
<path fill-rule="evenodd" clip-rule="evenodd" d="M36.4958 42.1675H99.9999V48.1117H36.4958V42.1675Z" fill="white"/>
<path fill-rule="evenodd" clip-rule="evenodd" d="M36.4958 2.97203H99.9999V0H36.4958V2.97203Z" fill="white"/>
<path fill-rule="evenodd" clip-rule="evenodd" d="M36.4958 9.65915H99.9999V5.20108H36.4958V9.65915Z" fill="white"/>
<path fill-rule="evenodd" clip-rule="evenodd" d="M36.4958 17.8323H99.9999V11.8882H36.4958V17.8323Z" fill="white"/>
<path fill-rule="evenodd" clip-rule="evenodd" d="M0 40.3103L7.47352 20.6271H14.1683L20.9919 40.3103H13.4474L8.35554 25.4015L2.79372 40.3103H0Z" fill="white"/>
</svg>
